<svg width="72" height="69" viewBox="0 0 72 69" fill="none" xmlns="http://www.w3.org/2000/svg">
<path fill-rule="evenodd" clip-rule="evenodd" d="M36.0248 6.229C19.4219 6.229 6 19.1865 6 35.2166C6 48.0303 14.5999 58.8769 26.5301 62.7158C28.0217 63.0044 28.5681 62.0921 28.5681 61.3247C28.5681 60.6527 28.5189 58.3492 28.5189 55.9491C20.1667 57.6772 18.4275 52.4936 18.4275 52.4936C17.0852 49.1341 15.0964 48.2706 15.0964 48.2706C12.3628 46.4949 15.2956 46.4949 15.2956 46.4949C18.3279 46.6869 19.9191 49.4704 19.9191 49.4704C22.603 53.8853 26.9278 52.6379 28.6677 51.8699C28.9159 49.9981 29.7118 48.7024 30.5569 47.9826C23.8954 47.3106 16.8867 44.8151 16.8867 33.6805C16.8867 30.513 18.079 27.9215 19.9682 25.9061C19.6702 25.1863 18.626 22.2103 20.2669 18.227C20.2669 18.227 22.8021 17.459 28.5183 21.2025C30.9656 20.568 33.4895 20.2452 36.0248 20.2425C38.56 20.2425 41.1443 20.5788 43.5307 21.2025C49.2476 17.459 51.7827 18.227 51.7827 18.227C53.4237 22.2103 52.3789 25.1863 52.0808 25.9061C54.0198 27.9215 55.1629 30.513 55.1629 33.6805C55.1629 44.8151 48.1542 47.2623 41.443 47.9826C42.5369 48.8944 43.4809 50.6218 43.4809 53.3576C43.4809 57.2448 43.4318 60.3646 43.4318 61.3241C43.4318 62.0921 43.9788 63.0044 45.4697 62.7164C57.4 58.8763 65.9999 48.0303 65.9999 35.2166C66.049 19.1865 52.578 6.229 36.0248 6.229Z" fill="white"/>
</svg>
