<svg width="256" height="256" viewBox="0 0 256 256" fill="none" xmlns="http://www.w3.org/2000/svg">
<path d="M147.782 66.2617L146.926 66.7787L147.782 66.2617ZM197.982 130.784L197.27 131.486L197.982 130.784ZM87.0533 76.6589L87.1747 75.6663L87.0533 76.6589ZM193.966 102.462L193.021 102.133L193.966 102.462ZM201.096 133.937L201.807 133.234L201.096 133.937ZM193.621 166.326L193.289 165.383L193.621 166.326ZM143.896 205.252L143.349 206.089L143.896 205.252ZM114.526 205.252L113.978 204.415L114.526 205.252ZM85.4263 76.46L85.305 77.4526L85.4263 76.46ZM112.367 63.4012L111.511 62.8843L112.367 63.4012ZM145.199 63.9181L146.926 66.7787L148.638 65.7448L146.911 62.8843L145.199 63.9181ZM197.27 131.486L200.384 134.639L201.807 133.234L198.694 130.081L197.27 131.486ZM193.289 165.383L190.673 166.303L191.336 168.19L193.952 167.27L193.289 165.383ZM115.574 203.371L113.978 204.415L115.073 206.089L116.668 205.046L115.574 203.371ZM85.1809 190.705L84.6811 185.875L82.6917 186.081L83.1915 190.911L85.1809 190.705ZM67.1573 107.179L65.4003 102.133L63.5115 102.791L65.2686 107.837L67.1573 107.179ZM85.305 77.4526L86.932 77.6515L87.1747 75.6663L85.5477 75.4674L85.305 77.4526ZM171.49 77.6515L173.117 77.4526L172.874 75.4674L171.247 75.6663L171.49 77.6515ZM193.021 102.133L191.264 107.179L193.153 107.837L194.91 102.791L193.021 102.133ZM173.741 185.875L173.241 190.705L175.23 190.911L175.73 186.081L173.741 185.875ZM144.443 204.415L142.847 203.371L141.753 205.046L143.349 206.089L144.443 204.415ZM67.749 166.303L65.1324 165.383L64.4691 167.27L67.0857 168.19L67.749 166.303ZM58.0372 134.639L61.1511 131.486L59.728 130.081L56.6142 133.234L58.0372 134.639ZM111.495 66.7787L113.223 63.9181L111.511 62.8843L109.783 65.7448L111.495 66.7787ZM146.926 66.7787C161.102 90.2541 178.001 111.974 197.27 131.486L198.694 130.081C179.534 110.68 162.733 89.0855 148.638 65.7448L146.926 66.7787ZM191.264 107.179C182.397 132.645 176.517 159.054 173.741 185.875L175.73 186.081C178.49 159.413 184.337 133.156 193.153 107.837L191.264 107.179ZM190.673 166.303C164.24 175.594 139.025 188.041 115.574 203.371L116.668 205.046C139.985 189.803 165.055 177.428 191.336 168.19L190.673 166.303ZM142.847 203.371C119.396 188.041 94.1813 175.594 67.749 166.303L67.0857 168.19C93.3663 177.428 118.436 189.803 141.753 205.046L142.847 203.371ZM84.6811 185.875C81.9049 159.054 76.0243 132.645 67.1573 107.179L65.2686 107.837C74.0846 133.156 79.9315 159.413 82.6917 186.081L84.6811 185.875ZM61.1511 131.486C80.4208 111.974 97.3192 90.2541 111.495 66.7787L109.783 65.7448C95.6885 89.0855 78.8871 110.68 59.728 130.081L61.1511 131.486ZM86.932 77.6515C115.013 81.0846 143.408 81.0846 171.49 77.6515L171.247 75.6663C143.327 79.0797 115.095 79.0797 87.1747 75.6663L86.932 77.6515ZM173.117 77.4526C186.842 75.7746 197.568 89.0744 193.021 102.133L194.91 102.791C199.944 88.3337 188.069 73.6097 172.874 75.4674L173.117 77.4526ZM200.384 134.639C210.011 144.388 206.214 160.839 193.289 165.383L193.952 167.27C208.262 162.24 212.465 144.026 201.807 133.234L200.384 134.639ZM173.241 190.705C171.801 204.614 156.148 212.067 144.443 204.415L143.349 206.089C156.307 214.56 173.636 206.31 175.23 190.911L173.241 190.705ZM113.978 204.415C102.274 212.067 86.6206 204.614 85.1809 190.705L83.1915 190.911C84.7854 206.31 102.115 214.56 115.073 206.089L113.978 204.415ZM65.1324 165.383C52.2071 160.839 48.4103 144.388 58.0372 134.639L56.6142 133.234C45.9564 144.026 50.1598 162.24 64.4691 167.27L65.1324 165.383ZM65.4003 102.133C60.8533 89.0744 71.5796 75.7746 85.305 77.4526L85.5477 75.4674C70.3525 73.6097 58.4776 88.3337 63.5115 102.791L65.4003 102.133ZM146.911 62.8843C138.868 49.5665 119.553 49.5665 111.511 62.8843L113.223 63.9181C120.487 51.8886 137.934 51.8886 145.199 63.9181L146.911 62.8843Z" fill="white"/>
<path d="M112.609 64.1987L112.126 65.0744L112.609 64.1987ZM188.344 94.9764L188.079 95.9407L188.344 94.9764ZM65.2146 103.567L64.8234 102.647L65.2146 103.567ZM170.705 72.4572L169.723 72.6446L170.705 72.4572ZM192.617 96.1501L192.882 95.1858L192.617 96.1501ZM202.338 127.938L201.58 127.287L202.338 127.938ZM178.738 186.511L178.683 187.509L178.738 186.511ZM153.303 201.196L152.41 200.745L153.303 201.196ZM63.7061 104.209L64.0973 105.129L63.7061 104.209ZM80.5079 79.4291L79.5081 79.4094L80.5079 79.4291ZM109.2 63.4608L112.126 65.0744L113.092 63.3231L110.165 61.7095L109.2 63.4608ZM188.079 95.9407L192.352 97.1144L192.882 95.1858L188.609 94.0121L188.079 95.9407ZM201.58 127.287L199.773 129.392L201.291 130.694L203.097 128.589L201.58 127.287ZM153.271 199.043L152.41 200.745L154.195 201.647L155.055 199.946L153.271 199.043ZM120.616 203.27L117.768 199.338L116.149 200.511L118.996 204.443L120.616 203.27ZM63.2443 139.947L59.1996 136.455L57.8927 137.969L61.9374 141.461L63.2443 139.947ZM64.0973 105.129L65.6058 104.488L64.8234 102.647L63.3149 103.288L64.0973 105.129ZM138.835 62.2088L140.144 61.2231L138.942 59.6252L137.632 60.6109L138.835 62.2088ZM169.723 72.6446L170.724 77.8933L172.689 77.5185L171.687 72.2698L169.723 72.6446ZM194.896 154.808L196.878 159.24L198.704 158.424L196.722 153.992L194.896 154.808ZM178.794 185.512L176.89 185.407L176.779 187.404L178.683 187.509L178.794 185.512ZM93.3185 190.853L90.5925 191.365L90.9615 193.331L93.6875 192.819L93.3185 190.853ZM69.0762 168.288L70.1963 164L68.2612 163.495L67.1411 167.782L69.0762 168.288ZM81.442 82.7898L81.5077 79.4487L79.5081 79.4094L79.4424 82.7504L81.442 82.7898ZM112.126 65.0744C136.141 78.3166 161.635 88.6771 188.079 95.9407L188.609 94.0121C162.316 86.7902 136.968 76.4892 113.092 63.3231L112.126 65.0744ZM170.724 77.8933C175.778 104.381 183.889 130.192 194.896 154.808L196.722 153.992C185.778 129.517 177.713 103.854 172.689 77.5185L170.724 77.8933ZM199.773 129.392C181.528 150.654 165.914 174.041 153.271 199.043L155.055 199.946C167.627 175.087 183.151 151.835 201.291 130.694L199.773 129.392ZM176.89 185.407C148.915 183.855 120.855 185.684 93.3185 190.853L93.6875 192.819C121.066 187.679 148.965 185.861 176.779 187.404L176.89 185.407ZM117.768 199.338C101.953 177.497 83.6561 157.567 63.2443 139.947L61.9374 141.461C82.2321 158.98 100.424 178.796 116.149 200.511L117.768 199.338ZM70.1963 164C77.128 137.467 80.9027 110.208 81.442 82.7898L79.4424 82.7504C78.9062 110.011 75.1531 137.114 68.2612 163.495L70.1963 164ZM65.6058 104.488C91.6415 93.4201 116.232 79.2226 138.835 62.2088L137.632 60.6109C115.159 77.5271 90.7096 91.6431 64.8234 102.647L65.6058 104.488ZM140.144 61.2231C151.192 52.9072 167.131 59.062 169.723 72.6446L171.687 72.2698C168.818 57.2327 151.172 50.4188 138.942 59.6252L140.144 61.2231ZM192.352 97.1144C205.564 100.743 210.501 116.889 201.58 127.287L203.097 128.589C212.975 117.078 207.508 99.2032 192.882 95.1858L192.352 97.1144ZM196.878 159.24C202.586 172.006 192.756 186.286 178.794 185.512L178.683 187.509C194.141 188.366 205.023 172.557 198.704 158.424L196.878 159.24ZM152.41 200.745C146.1 213.224 128.818 214.596 120.616 203.27L118.996 204.443C128.076 216.982 147.209 215.463 154.195 201.647L152.41 200.745ZM90.5925 191.365C77.1271 193.893 65.6132 181.544 69.0762 168.288L67.1411 167.782C63.3073 182.458 76.0542 196.129 90.9615 193.331L90.5925 191.365ZM59.1996 136.455C48.7325 127.42 51.3718 110.538 64.0973 105.129L63.3149 103.288C49.2267 109.277 46.3047 127.966 57.8927 137.969L59.1996 136.455ZM110.165 61.7095C96.5416 54.1971 79.8141 63.8548 79.5081 79.4094L81.5077 79.4487C81.7841 65.3986 96.8937 56.6751 109.2 63.4608L110.165 61.7095Z" fill="white"/>
</svg>
